M48
; DRILL file {KiCad 7.0.8} date Mon Nov 13 14:41:33 2023
; FORMAT={-:-/ absolute / metric / decimal}
; #@! TF.CreationDate,2023-11-13T14:41:33+09:00
; #@! TF.GenerationSoftware,Kicad,Pcbnew,7.0.8
; #@! TF.FileFunction,MixedPlating,1,2
FMAT,2
METRIC
; #@! TA.AperFunction,Plated,PTH,ViaDrill
T1C0.400
; #@! TA.AperFunction,Plated,PTH,ComponentDrill
T2C0.600
; #@! TA.AperFunction,Plated,PTH,ComponentDrill
T3C0.800
; #@! TA.AperFunction,Plated,PTH,ComponentDrill
T4C0.900
; #@! TA.AperFunction,Plated,PTH,ComponentDrill
T5C1.010
; #@! TA.AperFunction,Plated,PTH,ComponentDrill
T6C1.100
; #@! TA.AperFunction,Plated,PTH,ComponentDrill
T7C1.120
; #@! TA.AperFunction,NonPlated,NPTH,ComponentDrill
T8C3.200
%
G90
G05
T1
X54.61Y-85.725
T3
X22.225Y-106.68
X22.225Y-111.76
X22.225Y-116.84
X29.845Y-106.68
X29.845Y-111.76
X29.845Y-116.84
X33.655Y-96.52
X33.655Y-99.06
X33.655Y-101.6
X33.655Y-104.14
X33.655Y-106.68
X33.655Y-109.22
X33.655Y-111.76
X33.665Y-69.205
X33.665Y-71.745
X33.665Y-74.285
X33.665Y-76.825
X33.665Y-79.365
X33.665Y-81.905
X33.665Y-84.445
X33.665Y-86.985
X34.925Y-92.075
X34.965Y-54.61
X35.005Y-64.77
X39.925Y-92.075
X39.965Y-54.61
X40.005Y-64.77
X41.275Y-96.52
X41.275Y-99.06
X41.275Y-101.6
X41.275Y-104.14
X41.275Y-106.68
X41.275Y-109.22
X41.275Y-111.76
X41.285Y-69.205
X41.285Y-71.745
X41.285Y-74.285
X41.285Y-76.825
X41.285Y-79.365
X41.285Y-81.905
X41.285Y-84.445
X41.285Y-86.985
X44.45Y-93.98
X45.72Y-117.515
X45.72Y-122.515
X46.35Y-62.23
X46.355Y-68.62
X46.355Y-73.62
X46.355Y-82.63
X46.355Y-87.63
X46.355Y-99.06
X46.355Y-106.68
X50.8Y-67.31
X50.8Y-74.93
X50.8Y-81.28
X50.8Y-88.9
X52.07Y-93.98
X52.07Y-112.395
X52.07Y-120.015
X52.7Y-100.922
X52.7Y-108.542
X53.34Y-67.31
X53.34Y-74.93
X53.34Y-81.28
X53.34Y-88.9
X53.97Y-62.23
X55.24Y-100.922
X55.24Y-108.542
X55.88Y-67.31
X55.88Y-74.93
X55.88Y-81.28
X55.88Y-88.9
X56.515Y-112.395
X56.515Y-120.015
X58.42Y-67.31
X58.42Y-74.93
X58.42Y-81.28
X58.42Y-88.9
X60.96Y-67.31
X60.96Y-74.93
X60.96Y-81.28
X60.96Y-88.9
X60.96Y-112.395
X60.96Y-120.015
X62.86Y-100.922
X62.86Y-108.542
X63.5Y-67.31
X63.5Y-74.93
X63.5Y-81.28
X63.5Y-88.9
X65.4Y-100.922
X65.4Y-108.542
X65.405Y-112.395
X65.405Y-120.015
X66.04Y-67.31
X66.04Y-74.93
X66.04Y-81.28
X66.04Y-88.9
X71.125Y-82.6
X71.125Y-87.6
X71.755Y-100.965
X71.755Y-108.585
X75.57Y-81.29
X75.57Y-88.91
X76.835Y-100.965
X76.835Y-108.585
X80.65Y-81.29
X80.65Y-88.91
T4
X24.76Y-88.9
X24.76Y-98.425
X24.765Y-79.375
X27.3Y-88.9
X27.3Y-98.425
X27.305Y-79.375
X48.89Y-54.61
X51.43Y-54.61
T5
X34.915Y-59.09
X40.015Y-60.29
T6
X34.215Y-117.765
X34.215Y-122.265
X40.715Y-117.765
X40.715Y-122.265
T7
X20.5Y-59.055
X20.5Y-62.611
T8
X18.0Y-47.0
X18.0Y-124.0
X80.0Y-47.0
X80.0Y-124.0
T2
G00X17.04Y-56.515
M15
G01X16.34Y-56.515
M16
G05
G00X17.04Y-65.151
M15
G01X16.34Y-65.151
M16
G05
T0
M30
