G04 #@! TF.GenerationSoftware,KiCad,Pcbnew,7.0.8*
G04 #@! TF.CreationDate,2023-11-13T14:41:24+09:00*
G04 #@! TF.ProjectId,1bit-cpu,31626974-2d63-4707-952e-6b696361645f,rev?*
G04 #@! TF.SameCoordinates,Original*
G04 #@! TF.FileFunction,Soldermask,Top*
G04 #@! TF.FilePolarity,Negative*
%FSLAX46Y46*%
G04 Gerber Fmt 4.6, Leading zero omitted, Abs format (unit mm)*
G04 Created by KiCad (PCBNEW 7.0.8) date 2023-11-13 14:41:24*
%MOMM*%
%LPD*%
G01*
G04 APERTURE LIST*
%ADD10C,2.240000*%
%ADD11O,2.100000X1.400000*%
%ADD12R,1.600000X1.600000*%
%ADD13O,1.600000X1.600000*%
%ADD14R,1.800000X1.800000*%
%ADD15C,1.800000*%
%ADD16C,1.600000*%
%ADD17C,3.200000*%
%ADD18C,2.000000*%
%ADD19C,2.010000*%
G04 APERTURE END LIST*
D10*
G04 #@! TO.C,J1*
X20500000Y-59055000D03*
X20500000Y-62611000D03*
D11*
X16690000Y-56515000D03*
X16690000Y-65151000D03*
G04 #@! TD*
D12*
G04 #@! TO.C,U1*
X50800000Y-88900000D03*
D13*
X53340000Y-88900000D03*
X55880000Y-88900000D03*
X58420000Y-88900000D03*
X60960000Y-88900000D03*
X63500000Y-88900000D03*
X66040000Y-88900000D03*
X66040000Y-81280000D03*
X63500000Y-81280000D03*
X60960000Y-81280000D03*
X58420000Y-81280000D03*
X55880000Y-81280000D03*
X53340000Y-81280000D03*
X50800000Y-81280000D03*
G04 #@! TD*
D14*
G04 #@! TO.C,LED3*
X24760000Y-98425000D03*
D15*
X27300000Y-98425000D03*
G04 #@! TD*
D16*
G04 #@! TO.C,R4*
X75570000Y-88910000D03*
D13*
X75570000Y-81290000D03*
G04 #@! TD*
D16*
G04 #@! TO.C,C7*
X35005000Y-64770000D03*
X40005000Y-64770000D03*
G04 #@! TD*
D17*
G04 #@! TO.C,H2*
X80000000Y-47000000D03*
G04 #@! TD*
D12*
G04 #@! TO.C,D3*
X60960000Y-120015000D03*
D13*
X60960000Y-112395000D03*
G04 #@! TD*
D14*
G04 #@! TO.C,LED4*
X48890000Y-54610000D03*
D15*
X51430000Y-54610000D03*
G04 #@! TD*
D16*
G04 #@! TO.C,C5*
X34925000Y-92075000D03*
X39925000Y-92075000D03*
G04 #@! TD*
G04 #@! TO.C,R3*
X80650000Y-88910000D03*
D13*
X80650000Y-81290000D03*
G04 #@! TD*
D12*
G04 #@! TO.C,D4*
X65405000Y-120015000D03*
D13*
X65405000Y-112395000D03*
G04 #@! TD*
D14*
G04 #@! TO.C,LED1*
X24765000Y-79375000D03*
D15*
X27305000Y-79375000D03*
G04 #@! TD*
D16*
G04 #@! TO.C,R9*
X71755000Y-108585000D03*
D13*
X71755000Y-100965000D03*
G04 #@! TD*
D16*
G04 #@! TO.C,R8*
X22225000Y-116840000D03*
D13*
X29845000Y-116840000D03*
G04 #@! TD*
D12*
G04 #@! TO.C,SW1*
X52700000Y-108542500D03*
D13*
X55240000Y-108542500D03*
X55240000Y-100922500D03*
X52700000Y-100922500D03*
G04 #@! TD*
D17*
G04 #@! TO.C,H1*
X18000000Y-47000000D03*
G04 #@! TD*
D12*
G04 #@! TO.C,U4*
X33665000Y-69205000D03*
D13*
X33665000Y-71745000D03*
X33665000Y-74285000D03*
X33665000Y-76825000D03*
X33665000Y-79365000D03*
X33665000Y-81905000D03*
X33665000Y-84445000D03*
X33665000Y-86985000D03*
X41285000Y-86985000D03*
X41285000Y-84445000D03*
X41285000Y-81905000D03*
X41285000Y-79365000D03*
X41285000Y-76825000D03*
X41285000Y-74285000D03*
X41285000Y-71745000D03*
X41285000Y-69205000D03*
G04 #@! TD*
D12*
G04 #@! TO.C,U2*
X33655000Y-96520000D03*
D13*
X33655000Y-99060000D03*
X33655000Y-101600000D03*
X33655000Y-104140000D03*
X33655000Y-106680000D03*
X33655000Y-109220000D03*
X33655000Y-111760000D03*
X41275000Y-111760000D03*
X41275000Y-109220000D03*
X41275000Y-106680000D03*
X41275000Y-104140000D03*
X41275000Y-101600000D03*
X41275000Y-99060000D03*
X41275000Y-96520000D03*
G04 #@! TD*
D12*
G04 #@! TO.C,SW2*
X62860000Y-108542500D03*
D13*
X65400000Y-108542500D03*
X65400000Y-100922500D03*
X62860000Y-100922500D03*
G04 #@! TD*
D12*
G04 #@! TO.C,D2*
X56515000Y-120015000D03*
D13*
X56515000Y-112395000D03*
G04 #@! TD*
D16*
G04 #@! TO.C,R1*
X46355000Y-106680000D03*
D13*
X46355000Y-99060000D03*
G04 #@! TD*
D14*
G04 #@! TO.C,LED2*
X24760000Y-88900000D03*
D15*
X27300000Y-88900000D03*
G04 #@! TD*
D16*
G04 #@! TO.C,C4*
X46355000Y-87630000D03*
X46355000Y-82630000D03*
G04 #@! TD*
G04 #@! TO.C,R5*
X44450000Y-93980000D03*
D13*
X52070000Y-93980000D03*
G04 #@! TD*
D16*
G04 #@! TO.C,R7*
X22225000Y-111760000D03*
D13*
X29845000Y-111760000D03*
G04 #@! TD*
D18*
G04 #@! TO.C,SW3*
X34215000Y-117765000D03*
X40715000Y-117765000D03*
X34215000Y-122265000D03*
X40715000Y-122265000D03*
G04 #@! TD*
D17*
G04 #@! TO.C,H4*
X18000000Y-124000000D03*
G04 #@! TD*
D12*
G04 #@! TO.C,U3*
X50800000Y-74930000D03*
D13*
X53340000Y-74930000D03*
X55880000Y-74930000D03*
X58420000Y-74930000D03*
X60960000Y-74930000D03*
X63500000Y-74930000D03*
X66040000Y-74930000D03*
X66040000Y-67310000D03*
X63500000Y-67310000D03*
X60960000Y-67310000D03*
X58420000Y-67310000D03*
X55880000Y-67310000D03*
X53340000Y-67310000D03*
X50800000Y-67310000D03*
G04 #@! TD*
D16*
G04 #@! TO.C,C2*
X71125000Y-87600000D03*
X71125000Y-82600000D03*
G04 #@! TD*
G04 #@! TO.C,C1*
X45720000Y-122515000D03*
X45720000Y-117515000D03*
G04 #@! TD*
D19*
G04 #@! TO.C,F1*
X34915000Y-59090000D03*
X40015000Y-60290000D03*
G04 #@! TD*
D16*
G04 #@! TO.C,C3*
X34965000Y-54610000D03*
X39965000Y-54610000D03*
G04 #@! TD*
G04 #@! TO.C,C6*
X46355000Y-73620000D03*
X46355000Y-68620000D03*
G04 #@! TD*
D12*
G04 #@! TO.C,D1*
X52070000Y-120015000D03*
D13*
X52070000Y-112395000D03*
G04 #@! TD*
D16*
G04 #@! TO.C,R10*
X76835000Y-108585000D03*
D13*
X76835000Y-100965000D03*
G04 #@! TD*
D16*
G04 #@! TO.C,R2*
X46350000Y-62230000D03*
D13*
X53970000Y-62230000D03*
G04 #@! TD*
D16*
G04 #@! TO.C,R6*
X22225000Y-106680000D03*
D13*
X29845000Y-106680000D03*
G04 #@! TD*
D17*
G04 #@! TO.C,H3*
X80000000Y-124000000D03*
G04 #@! TD*
M02*
