G04 #@! TF.GenerationSoftware,KiCad,Pcbnew,7.0.8*
G04 #@! TF.CreationDate,2023-11-13T14:41:24+09:00*
G04 #@! TF.ProjectId,1bit-cpu,31626974-2d63-4707-952e-6b696361645f,rev?*
G04 #@! TF.SameCoordinates,Original*
G04 #@! TF.FileFunction,Copper,L1,Top*
G04 #@! TF.FilePolarity,Positive*
%FSLAX46Y46*%
G04 Gerber Fmt 4.6, Leading zero omitted, Abs format (unit mm)*
G04 Created by KiCad (PCBNEW 7.0.8) date 2023-11-13 14:41:24*
%MOMM*%
%LPD*%
G01*
G04 APERTURE LIST*
G04 #@! TA.AperFunction,ComponentPad*
%ADD10C,2.240000*%
G04 #@! TD*
G04 #@! TA.AperFunction,ComponentPad*
%ADD11O,2.100000X1.400000*%
G04 #@! TD*
G04 #@! TA.AperFunction,ComponentPad*
%ADD12R,1.600000X1.600000*%
G04 #@! TD*
G04 #@! TA.AperFunction,ComponentPad*
%ADD13O,1.600000X1.600000*%
G04 #@! TD*
G04 #@! TA.AperFunction,ComponentPad*
%ADD14R,1.800000X1.800000*%
G04 #@! TD*
G04 #@! TA.AperFunction,ComponentPad*
%ADD15C,1.800000*%
G04 #@! TD*
G04 #@! TA.AperFunction,ComponentPad*
%ADD16C,1.600000*%
G04 #@! TD*
G04 #@! TA.AperFunction,ComponentPad*
%ADD17C,2.000000*%
G04 #@! TD*
G04 #@! TA.AperFunction,ComponentPad*
%ADD18C,2.010000*%
G04 #@! TD*
G04 #@! TA.AperFunction,ViaPad*
%ADD19C,0.800000*%
G04 #@! TD*
G04 #@! TA.AperFunction,Conductor*
%ADD20C,0.250000*%
G04 #@! TD*
G04 APERTURE END LIST*
D10*
G04 #@! TO.P,J1,A9,VBUS*
G04 #@! TO.N,Net-(F1-Pad1)*
X20500000Y-59055000D03*
G04 #@! TO.P,J1,A12,GND*
G04 #@! TO.N,GND*
X20500000Y-62611000D03*
D11*
G04 #@! TO.P,J1,S1,SHIELD*
G04 #@! TO.N,unconnected-(J1-SHIELD-PadS1)*
X16690000Y-56515000D03*
X16690000Y-65151000D03*
G04 #@! TD*
D12*
G04 #@! TO.P,U1,1*
G04 #@! TO.N,Net-(D1-K)*
X50800000Y-88900000D03*
D13*
G04 #@! TO.P,U1,2*
G04 #@! TO.N,Net-(D3-K)*
X53340000Y-88900000D03*
G04 #@! TO.P,U1,3*
G04 #@! TO.N,Net-(R9-Pad2)*
X55880000Y-88900000D03*
G04 #@! TO.P,U1,4*
G04 #@! TO.N,Net-(U4-A)*
X58420000Y-88900000D03*
G04 #@! TO.P,U1,5*
G04 #@! TO.N,Net-(R10-Pad2)*
X60960000Y-88900000D03*
G04 #@! TO.P,U1,6*
G04 #@! TO.N,Net-(U4-2C1)*
X63500000Y-88900000D03*
G04 #@! TO.P,U1,7,GND*
G04 #@! TO.N,GND*
X66040000Y-88900000D03*
G04 #@! TO.P,U1,8*
G04 #@! TO.N,Net-(R4-Pad2)*
X66040000Y-81280000D03*
G04 #@! TO.P,U1,9*
G04 #@! TO.N,Net-(R3-Pad2)*
X63500000Y-81280000D03*
G04 #@! TO.P,U1,10*
G04 #@! TO.N,Net-(C2-Pad2)*
X60960000Y-81280000D03*
G04 #@! TO.P,U1,11*
G04 #@! TO.N,Net-(R4-Pad2)*
X58420000Y-81280000D03*
G04 #@! TO.P,U1,12*
G04 #@! TO.N,Net-(R5-Pad2)*
X55880000Y-81280000D03*
G04 #@! TO.P,U1,13*
G04 #@! TO.N,Net-(C2-Pad2)*
X53340000Y-81280000D03*
G04 #@! TO.P,U1,14,VCC*
G04 #@! TO.N,+5V*
X50800000Y-81280000D03*
G04 #@! TD*
D14*
G04 #@! TO.P,LED3,1,K*
G04 #@! TO.N,GND*
X24760000Y-98425000D03*
D15*
G04 #@! TO.P,LED3,2,A*
G04 #@! TO.N,Net-(LED3-A)*
X27300000Y-98425000D03*
G04 #@! TD*
D16*
G04 #@! TO.P,R4,1*
G04 #@! TO.N,Net-(C2-Pad1)*
X75570000Y-88910000D03*
D13*
G04 #@! TO.P,R4,2*
G04 #@! TO.N,Net-(R4-Pad2)*
X75570000Y-81290000D03*
G04 #@! TD*
D16*
G04 #@! TO.P,C7,1*
G04 #@! TO.N,GND*
X35005000Y-64770000D03*
G04 #@! TO.P,C7,2*
G04 #@! TO.N,+5V*
X40005000Y-64770000D03*
G04 #@! TD*
D12*
G04 #@! TO.P,D3,1,K*
G04 #@! TO.N,Net-(D3-K)*
X60960000Y-120015000D03*
D13*
G04 #@! TO.P,D3,2,A*
G04 #@! TO.N,Net-(D3-A)*
X60960000Y-112395000D03*
G04 #@! TD*
D14*
G04 #@! TO.P,LED4,1,K*
G04 #@! TO.N,Net-(LED4-K)*
X48890000Y-54610000D03*
D15*
G04 #@! TO.P,LED4,2,A*
G04 #@! TO.N,+5V*
X51430000Y-54610000D03*
G04 #@! TD*
D16*
G04 #@! TO.P,C5,1*
G04 #@! TO.N,GND*
X34925000Y-92075000D03*
G04 #@! TO.P,C5,2*
G04 #@! TO.N,+5V*
X39925000Y-92075000D03*
G04 #@! TD*
G04 #@! TO.P,R3,1*
G04 #@! TO.N,Net-(C2-Pad1)*
X80650000Y-88910000D03*
D13*
G04 #@! TO.P,R3,2*
G04 #@! TO.N,Net-(R3-Pad2)*
X80650000Y-81290000D03*
G04 #@! TD*
D12*
G04 #@! TO.P,D4,1,K*
G04 #@! TO.N,Net-(D3-K)*
X65405000Y-120015000D03*
D13*
G04 #@! TO.P,D4,2,A*
G04 #@! TO.N,Net-(D4-A)*
X65405000Y-112395000D03*
G04 #@! TD*
D14*
G04 #@! TO.P,LED1,1,K*
G04 #@! TO.N,GND*
X24765000Y-79375000D03*
D15*
G04 #@! TO.P,LED1,2,A*
G04 #@! TO.N,Net-(LED1-A)*
X27305000Y-79375000D03*
G04 #@! TD*
D16*
G04 #@! TO.P,R9,1*
G04 #@! TO.N,+5V*
X71755000Y-108585000D03*
D13*
G04 #@! TO.P,R9,2*
G04 #@! TO.N,Net-(R9-Pad2)*
X71755000Y-100965000D03*
G04 #@! TD*
D16*
G04 #@! TO.P,R8,1*
G04 #@! TO.N,Net-(LED3-A)*
X22225000Y-116840000D03*
D13*
G04 #@! TO.P,R8,2*
G04 #@! TO.N,Net-(R5-Pad2)*
X29845000Y-116840000D03*
G04 #@! TD*
D12*
G04 #@! TO.P,SW1,1*
G04 #@! TO.N,Net-(D1-A)*
X52700000Y-108542500D03*
D13*
G04 #@! TO.P,SW1,2*
G04 #@! TO.N,Net-(D2-A)*
X55240000Y-108542500D03*
G04 #@! TO.P,SW1,3*
G04 #@! TO.N,Net-(R10-Pad2)*
X55240000Y-100922500D03*
G04 #@! TO.P,SW1,4*
G04 #@! TO.N,Net-(R9-Pad2)*
X52700000Y-100922500D03*
G04 #@! TD*
D12*
G04 #@! TO.P,U4,1,1G*
G04 #@! TO.N,GND*
X33665000Y-69205000D03*
D13*
G04 #@! TO.P,U4,2,B*
X33665000Y-71745000D03*
G04 #@! TO.P,U4,3,1C3*
X33665000Y-74285000D03*
G04 #@! TO.P,U4,4,1C2*
X33665000Y-76825000D03*
G04 #@! TO.P,U4,5,1C1*
G04 #@! TO.N,Net-(U2A-Q)*
X33665000Y-79365000D03*
G04 #@! TO.P,U4,6,1C0*
G04 #@! TO.N,Net-(U4-1C0)*
X33665000Y-81905000D03*
G04 #@! TO.P,U4,7,Y1*
G04 #@! TO.N,Net-(U2A-D)*
X33665000Y-84445000D03*
G04 #@! TO.P,U4,8,GND*
G04 #@! TO.N,GND*
X33665000Y-86985000D03*
G04 #@! TO.P,U4,9,Y2*
G04 #@! TO.N,Net-(U2B-D)*
X41285000Y-86985000D03*
G04 #@! TO.P,U4,10,2C0*
G04 #@! TO.N,Net-(U2B-~{Q})*
X41285000Y-84445000D03*
G04 #@! TO.P,U4,11,2C1*
G04 #@! TO.N,Net-(U4-2C1)*
X41285000Y-81905000D03*
G04 #@! TO.P,U4,12,2C2*
G04 #@! TO.N,GND*
X41285000Y-79365000D03*
G04 #@! TO.P,U4,13,2C3*
X41285000Y-76825000D03*
G04 #@! TO.P,U4,14,A*
G04 #@! TO.N,Net-(U4-A)*
X41285000Y-74285000D03*
G04 #@! TO.P,U4,15,2G*
G04 #@! TO.N,GND*
X41285000Y-71745000D03*
G04 #@! TO.P,U4,16,VCC*
G04 #@! TO.N,+5V*
X41285000Y-69205000D03*
G04 #@! TD*
D12*
G04 #@! TO.P,U2,1,~{R}*
G04 #@! TO.N,Net-(U2A-~{R})*
X33655000Y-96520000D03*
D13*
G04 #@! TO.P,U2,2,D*
G04 #@! TO.N,Net-(U2A-D)*
X33655000Y-99060000D03*
G04 #@! TO.P,U2,3,C*
G04 #@! TO.N,Net-(U2A-C)*
X33655000Y-101600000D03*
G04 #@! TO.P,U2,4,~{S}*
G04 #@! TO.N,+5V*
X33655000Y-104140000D03*
G04 #@! TO.P,U2,5,Q*
G04 #@! TO.N,Net-(U2A-Q)*
X33655000Y-106680000D03*
G04 #@! TO.P,U2,6,~{Q}*
G04 #@! TO.N,unconnected-(U2A-~{Q}-Pad6)*
X33655000Y-109220000D03*
G04 #@! TO.P,U2,7,GND*
G04 #@! TO.N,GND*
X33655000Y-111760000D03*
G04 #@! TO.P,U2,8,~{Q}*
G04 #@! TO.N,Net-(U2B-~{Q})*
X41275000Y-111760000D03*
G04 #@! TO.P,U2,9,Q*
G04 #@! TO.N,Net-(D1-K)*
X41275000Y-109220000D03*
G04 #@! TO.P,U2,10,~{S}*
G04 #@! TO.N,+5V*
X41275000Y-106680000D03*
G04 #@! TO.P,U2,11,C*
G04 #@! TO.N,Net-(U2A-C)*
X41275000Y-104140000D03*
G04 #@! TO.P,U2,12,D*
G04 #@! TO.N,Net-(U2B-D)*
X41275000Y-101600000D03*
G04 #@! TO.P,U2,13,~{R}*
G04 #@! TO.N,Net-(U2A-~{R})*
X41275000Y-99060000D03*
G04 #@! TO.P,U2,14,VCC*
G04 #@! TO.N,+5V*
X41275000Y-96520000D03*
G04 #@! TD*
D12*
G04 #@! TO.P,SW2,1*
G04 #@! TO.N,Net-(D3-A)*
X62860000Y-108542500D03*
D13*
G04 #@! TO.P,SW2,2*
G04 #@! TO.N,Net-(D4-A)*
X65400000Y-108542500D03*
G04 #@! TO.P,SW2,3*
G04 #@! TO.N,Net-(R10-Pad2)*
X65400000Y-100922500D03*
G04 #@! TO.P,SW2,4*
G04 #@! TO.N,Net-(R9-Pad2)*
X62860000Y-100922500D03*
G04 #@! TD*
D12*
G04 #@! TO.P,D2,1,K*
G04 #@! TO.N,Net-(D1-K)*
X56515000Y-120015000D03*
D13*
G04 #@! TO.P,D2,2,A*
G04 #@! TO.N,Net-(D2-A)*
X56515000Y-112395000D03*
G04 #@! TD*
D16*
G04 #@! TO.P,R1,1*
G04 #@! TO.N,+5V*
X46355000Y-106680000D03*
D13*
G04 #@! TO.P,R1,2*
G04 #@! TO.N,Net-(U2A-~{R})*
X46355000Y-99060000D03*
G04 #@! TD*
D14*
G04 #@! TO.P,LED2,1,K*
G04 #@! TO.N,GND*
X24760000Y-88900000D03*
D15*
G04 #@! TO.P,LED2,2,A*
G04 #@! TO.N,Net-(LED2-A)*
X27300000Y-88900000D03*
G04 #@! TD*
D16*
G04 #@! TO.P,C4,1*
G04 #@! TO.N,GND*
X46355000Y-87630000D03*
G04 #@! TO.P,C4,2*
G04 #@! TO.N,+5V*
X46355000Y-82630000D03*
G04 #@! TD*
G04 #@! TO.P,R5,1*
G04 #@! TO.N,Net-(U2A-C)*
X44450000Y-93980000D03*
D13*
G04 #@! TO.P,R5,2*
G04 #@! TO.N,Net-(R5-Pad2)*
X52070000Y-93980000D03*
G04 #@! TD*
D16*
G04 #@! TO.P,R7,1*
G04 #@! TO.N,Net-(LED2-A)*
X22225000Y-111760000D03*
D13*
G04 #@! TO.P,R7,2*
G04 #@! TO.N,Net-(D1-K)*
X29845000Y-111760000D03*
G04 #@! TD*
D17*
G04 #@! TO.P,SW3,1,1*
G04 #@! TO.N,Net-(U2A-~{R})*
X34215000Y-117765000D03*
X40715000Y-117765000D03*
G04 #@! TO.P,SW3,2,2*
G04 #@! TO.N,GND*
X34215000Y-122265000D03*
X40715000Y-122265000D03*
G04 #@! TD*
D12*
G04 #@! TO.P,U3,1*
G04 #@! TO.N,Net-(U2A-Q)*
X50800000Y-74930000D03*
D13*
G04 #@! TO.P,U3,2*
G04 #@! TO.N,Net-(U4-2C1)*
X53340000Y-74930000D03*
G04 #@! TO.P,U3,3*
G04 #@! TO.N,Net-(U3-Pad3)*
X55880000Y-74930000D03*
G04 #@! TO.P,U3,4*
G04 #@! TO.N,Net-(U2A-Q)*
X58420000Y-74930000D03*
G04 #@! TO.P,U3,5*
G04 #@! TO.N,Net-(U3-Pad3)*
X60960000Y-74930000D03*
G04 #@! TO.P,U3,6*
G04 #@! TO.N,Net-(U3-Pad12)*
X63500000Y-74930000D03*
G04 #@! TO.P,U3,7,GND*
G04 #@! TO.N,GND*
X66040000Y-74930000D03*
G04 #@! TO.P,U3,8*
G04 #@! TO.N,Net-(U3-Pad13)*
X66040000Y-67310000D03*
G04 #@! TO.P,U3,9*
G04 #@! TO.N,Net-(U3-Pad3)*
X63500000Y-67310000D03*
G04 #@! TO.P,U3,10*
G04 #@! TO.N,Net-(U4-2C1)*
X60960000Y-67310000D03*
G04 #@! TO.P,U3,11*
G04 #@! TO.N,Net-(U4-1C0)*
X58420000Y-67310000D03*
G04 #@! TO.P,U3,12*
G04 #@! TO.N,Net-(U3-Pad12)*
X55880000Y-67310000D03*
G04 #@! TO.P,U3,13*
G04 #@! TO.N,Net-(U3-Pad13)*
X53340000Y-67310000D03*
G04 #@! TO.P,U3,14,VCC*
G04 #@! TO.N,+5V*
X50800000Y-67310000D03*
G04 #@! TD*
D16*
G04 #@! TO.P,C2,1*
G04 #@! TO.N,Net-(C2-Pad1)*
X71125000Y-87600000D03*
G04 #@! TO.P,C2,2*
G04 #@! TO.N,Net-(C2-Pad2)*
X71125000Y-82600000D03*
G04 #@! TD*
G04 #@! TO.P,C1,1*
G04 #@! TO.N,GND*
X45720000Y-122515000D03*
G04 #@! TO.P,C1,2*
G04 #@! TO.N,Net-(U2A-~{R})*
X45720000Y-117515000D03*
G04 #@! TD*
D18*
G04 #@! TO.P,F1,1*
G04 #@! TO.N,Net-(F1-Pad1)*
X34915000Y-59090000D03*
G04 #@! TO.P,F1,2*
G04 #@! TO.N,+5V*
X40015000Y-60290000D03*
G04 #@! TD*
D16*
G04 #@! TO.P,C3,1*
G04 #@! TO.N,GND*
X34965000Y-54610000D03*
G04 #@! TO.P,C3,2*
G04 #@! TO.N,+5V*
X39965000Y-54610000D03*
G04 #@! TD*
G04 #@! TO.P,C6,1*
G04 #@! TO.N,GND*
X46355000Y-73620000D03*
G04 #@! TO.P,C6,2*
G04 #@! TO.N,+5V*
X46355000Y-68620000D03*
G04 #@! TD*
D12*
G04 #@! TO.P,D1,1,K*
G04 #@! TO.N,Net-(D1-K)*
X52070000Y-120015000D03*
D13*
G04 #@! TO.P,D1,2,A*
G04 #@! TO.N,Net-(D1-A)*
X52070000Y-112395000D03*
G04 #@! TD*
D16*
G04 #@! TO.P,R10,1*
G04 #@! TO.N,+5V*
X76835000Y-108585000D03*
D13*
G04 #@! TO.P,R10,2*
G04 #@! TO.N,Net-(R10-Pad2)*
X76835000Y-100965000D03*
G04 #@! TD*
D16*
G04 #@! TO.P,R2,1*
G04 #@! TO.N,Net-(LED4-K)*
X46350000Y-62230000D03*
D13*
G04 #@! TO.P,R2,2*
G04 #@! TO.N,GND*
X53970000Y-62230000D03*
G04 #@! TD*
D16*
G04 #@! TO.P,R6,1*
G04 #@! TO.N,Net-(LED1-A)*
X22225000Y-106680000D03*
D13*
G04 #@! TO.P,R6,2*
G04 #@! TO.N,Net-(U2A-Q)*
X29845000Y-106680000D03*
G04 #@! TD*
D19*
G04 #@! TO.N,Net-(R5-Pad2)*
X54610000Y-85725000D03*
G04 #@! TD*
D20*
G04 #@! TO.N,unconnected-(J1-SHIELD-PadS1)*
X16690000Y-56515000D02*
X16690000Y-65151000D01*
G04 #@! TO.N,GND*
X22659000Y-64770000D02*
X20500000Y-62611000D01*
X35005000Y-64770000D02*
X22659000Y-64770000D01*
G04 #@! TO.N,Net-(F1-Pad1)*
X34880000Y-59055000D02*
X34915000Y-59090000D01*
X20500000Y-59055000D02*
X34880000Y-59055000D01*
G04 #@! TO.N,Net-(U2A-~{R})*
X40715000Y-117765000D02*
X45470000Y-117765000D01*
X41275000Y-99060000D02*
X46355000Y-99060000D01*
X45470000Y-117765000D02*
X45720000Y-117515000D01*
G04 #@! TO.N,GND*
X39370000Y-77450000D02*
X41285000Y-79365000D01*
X66040000Y-74930000D02*
X67945000Y-76835000D01*
X41285000Y-71745000D02*
X39370000Y-73660000D01*
X24765000Y-79375000D02*
X27315000Y-76825000D01*
X27315000Y-76825000D02*
X33665000Y-76825000D01*
X36830000Y-56475000D02*
X36830000Y-62945000D01*
X36195000Y-86995000D02*
X36195000Y-92075000D01*
X33655000Y-111760000D02*
X36195000Y-111760000D01*
X33665000Y-86985000D02*
X36185000Y-86985000D01*
X40715000Y-122265000D02*
X45470000Y-122265000D01*
X41285000Y-76825000D02*
X39380000Y-76825000D01*
X39370000Y-73660000D02*
X39370000Y-76835000D01*
X67945000Y-86995000D02*
X66040000Y-88900000D01*
X46355000Y-87630000D02*
X48260000Y-87630000D01*
X34965000Y-54610000D02*
X36830000Y-56475000D01*
X39370000Y-76835000D02*
X39370000Y-77450000D01*
X41285000Y-71745000D02*
X46355000Y-71745000D01*
X67945000Y-65405000D02*
X67945000Y-73025000D01*
X36185000Y-86985000D02*
X36195000Y-86995000D01*
X33665000Y-66110000D02*
X35005000Y-64770000D01*
X67945000Y-73025000D02*
X66040000Y-74930000D01*
X62855000Y-71745000D02*
X66040000Y-74930000D01*
X46355000Y-71745000D02*
X62855000Y-71745000D01*
X36195000Y-65960000D02*
X36195000Y-86995000D01*
X36830000Y-62945000D02*
X35005000Y-64770000D01*
X36195000Y-120285000D02*
X34215000Y-122265000D01*
X36195000Y-92075000D02*
X36195000Y-111760000D01*
X46355000Y-73620000D02*
X46355000Y-71745000D01*
X67945000Y-76835000D02*
X67945000Y-86995000D01*
X35005000Y-64770000D02*
X36195000Y-65960000D01*
X33665000Y-69205000D02*
X33665000Y-66110000D01*
X61595000Y-84455000D02*
X66040000Y-88900000D01*
X45470000Y-122265000D02*
X45720000Y-122515000D01*
X39380000Y-76825000D02*
X39370000Y-76835000D01*
X53970000Y-62230000D02*
X64770000Y-62230000D01*
X51435000Y-84455000D02*
X61595000Y-84455000D01*
X40715000Y-122265000D02*
X38175000Y-122265000D01*
X64770000Y-62230000D02*
X67945000Y-65405000D01*
X24765000Y-79375000D02*
X24765000Y-88895000D01*
X34925000Y-92075000D02*
X36195000Y-92075000D01*
X38175000Y-122265000D02*
X36195000Y-120285000D01*
X48260000Y-87630000D02*
X51435000Y-84455000D01*
X36195000Y-111760000D02*
X36195000Y-120285000D01*
X24765000Y-88895000D02*
X24760000Y-88900000D01*
X33665000Y-69205000D02*
X33665000Y-76825000D01*
G04 #@! TO.N,Net-(C2-Pad1)*
X75570000Y-88910000D02*
X72435000Y-88910000D01*
X80650000Y-88910000D02*
X75570000Y-88910000D01*
X72435000Y-88910000D02*
X71125000Y-87600000D01*
G04 #@! TO.N,Net-(C2-Pad2)*
X53340000Y-81280000D02*
X53340000Y-80010000D01*
X53340000Y-80010000D02*
X54610000Y-78740000D01*
X59690000Y-78740000D02*
X60960000Y-80010000D01*
X60960000Y-80010000D02*
X60960000Y-81280000D01*
X54610000Y-78740000D02*
X59690000Y-78740000D01*
G04 #@! TO.N,+5V*
X39925000Y-92075000D02*
X41275000Y-92075000D01*
X43815000Y-85170000D02*
X46355000Y-82630000D01*
X41285000Y-69205000D02*
X45770000Y-69205000D01*
X38735000Y-92075000D02*
X38735000Y-96520000D01*
X41285000Y-69205000D02*
X38745000Y-69205000D01*
X38745000Y-69205000D02*
X38735000Y-69215000D01*
X45770000Y-69205000D02*
X46355000Y-68620000D01*
X46355000Y-106680000D02*
X47625000Y-105410000D01*
X38735000Y-66040000D02*
X38735000Y-69215000D01*
X42505000Y-52070000D02*
X50165000Y-52070000D01*
X50165000Y-52070000D02*
X51430000Y-53335000D01*
X41275000Y-106680000D02*
X46355000Y-106680000D01*
X39965000Y-64730000D02*
X40005000Y-64770000D01*
X41275000Y-92075000D02*
X43815000Y-89535000D01*
X71755000Y-108585000D02*
X76835000Y-108585000D01*
X41275000Y-96520000D02*
X38735000Y-96520000D01*
X39925000Y-92075000D02*
X38735000Y-92075000D01*
X49490000Y-68620000D02*
X50800000Y-67310000D01*
X47625000Y-105410000D02*
X68580000Y-105410000D01*
X38735000Y-96520000D02*
X38735000Y-104140000D01*
X39965000Y-54610000D02*
X39965000Y-64730000D01*
X51430000Y-53335000D02*
X51430000Y-54610000D01*
X46355000Y-82630000D02*
X49450000Y-82630000D01*
X38735000Y-104140000D02*
X41275000Y-106680000D01*
X40005000Y-64770000D02*
X38735000Y-66040000D01*
X68580000Y-105410000D02*
X71755000Y-108585000D01*
X49450000Y-82630000D02*
X50800000Y-81280000D01*
X38735000Y-69215000D02*
X38735000Y-92075000D01*
X46355000Y-68620000D02*
X49490000Y-68620000D01*
X43815000Y-89535000D02*
X43815000Y-85170000D01*
X39965000Y-54610000D02*
X42505000Y-52070000D01*
G04 #@! TO.N,Net-(D1-K)*
X41275000Y-109220000D02*
X45720000Y-109220000D01*
X52070000Y-120015000D02*
X56515000Y-120015000D01*
X48260000Y-116205000D02*
X52070000Y-120015000D01*
X45720000Y-109220000D02*
X48260000Y-111760000D01*
X48260000Y-111760000D02*
X48260000Y-116205000D01*
G04 #@! TO.N,Net-(D1-A)*
X52700000Y-111765000D02*
X52070000Y-112395000D01*
X52700000Y-108542500D02*
X52700000Y-111765000D01*
G04 #@! TO.N,Net-(D2-A)*
X55240000Y-108542500D02*
X55240000Y-111120000D01*
X55240000Y-111120000D02*
X56515000Y-112395000D01*
G04 #@! TO.N,Net-(D3-K)*
X60960000Y-120015000D02*
X65405000Y-120015000D01*
G04 #@! TO.N,Net-(D3-A)*
X62860000Y-110495000D02*
X60960000Y-112395000D01*
X62860000Y-108542500D02*
X62860000Y-110495000D01*
G04 #@! TO.N,Net-(D4-A)*
X65400000Y-108542500D02*
X65400000Y-112390000D01*
X65400000Y-112390000D02*
X65405000Y-112395000D01*
G04 #@! TO.N,Net-(LED1-A)*
X29845000Y-89535000D02*
X22225000Y-97155000D01*
X27305000Y-79375000D02*
X29845000Y-81915000D01*
X29845000Y-81915000D02*
X29845000Y-89535000D01*
X22225000Y-97155000D02*
X22225000Y-106680000D01*
G04 #@! TO.N,Net-(LED2-A)*
X27300000Y-88900000D02*
X20320000Y-95880000D01*
X20320000Y-95880000D02*
X20320000Y-109855000D01*
X20320000Y-109855000D02*
X22225000Y-111760000D01*
G04 #@! TO.N,Net-(LED3-A)*
X26035000Y-116840000D02*
X22225000Y-116840000D01*
X27300000Y-98425000D02*
X27300000Y-115575000D01*
X27300000Y-115575000D02*
X26035000Y-116840000D01*
G04 #@! TO.N,Net-(LED4-K)*
X48890000Y-59690000D02*
X46350000Y-62230000D01*
X48890000Y-54610000D02*
X48890000Y-59690000D01*
G04 #@! TO.N,Net-(R4-Pad2)*
X66040000Y-81280000D02*
X64135000Y-83185000D01*
X60325000Y-83185000D02*
X58420000Y-81280000D01*
X64135000Y-83185000D02*
X60325000Y-83185000D01*
G04 #@! TO.N,Net-(R5-Pad2)*
X54610000Y-85725000D02*
X54610000Y-91440000D01*
X52070000Y-93980000D02*
X54610000Y-91440000D01*
G04 #@! TO.N,Net-(U2A-Q)*
X52705000Y-73025000D02*
X56515000Y-73025000D01*
X31115000Y-104140000D02*
X31115000Y-81915000D01*
X29845000Y-106680000D02*
X33655000Y-106680000D01*
X33655000Y-106680000D02*
X31115000Y-104140000D01*
X56515000Y-73025000D02*
X58420000Y-74930000D01*
X31115000Y-81915000D02*
X33665000Y-79365000D01*
X50800000Y-74930000D02*
X52705000Y-73025000D01*
G04 #@! TO.N,Net-(R9-Pad2)*
X62860000Y-100922500D02*
X62860000Y-103500000D01*
X52700000Y-100922500D02*
X52700000Y-97160000D01*
X62860000Y-103500000D02*
X62865000Y-103505000D01*
X52700000Y-97160000D02*
X55880000Y-93980000D01*
X55282500Y-103505000D02*
X52700000Y-100922500D01*
X71755000Y-100965000D02*
X69215000Y-103505000D01*
X69215000Y-103505000D02*
X62865000Y-103505000D01*
X55880000Y-93980000D02*
X55880000Y-88900000D01*
X62865000Y-103505000D02*
X55282500Y-103505000D01*
G04 #@! TO.N,Net-(R10-Pad2)*
X65400000Y-96515000D02*
X65400000Y-96520000D01*
X55240000Y-100922500D02*
X55240000Y-97795000D01*
X60960000Y-92075000D02*
X65400000Y-96515000D01*
X76835000Y-100965000D02*
X76835000Y-98425000D01*
X65400000Y-96520000D02*
X65400000Y-100922500D01*
X74930000Y-96520000D02*
X65400000Y-96520000D01*
X55240000Y-97795000D02*
X60960000Y-92075000D01*
X76835000Y-98425000D02*
X74930000Y-96520000D01*
X60960000Y-88900000D02*
X60960000Y-92075000D01*
G04 #@! TO.N,Net-(U4-2C1)*
X41285000Y-81905000D02*
X45085000Y-78105000D01*
X45085000Y-78105000D02*
X50165000Y-78105000D01*
X50165000Y-78105000D02*
X53340000Y-74930000D01*
G04 #@! TO.N,Net-(U2A-D)*
X33655000Y-99060000D02*
X31750000Y-97155000D01*
X31750000Y-97155000D02*
X31750000Y-86360000D01*
X31750000Y-86360000D02*
X33665000Y-84445000D01*
G04 #@! TO.N,Net-(U3-Pad3)*
X57150000Y-76200000D02*
X59690000Y-76200000D01*
X55880000Y-74930000D02*
X57150000Y-76200000D01*
X59690000Y-76200000D02*
X60960000Y-74930000D01*
G04 #@! TO.N,Net-(U3-Pad13)*
X55245000Y-65405000D02*
X64135000Y-65405000D01*
X53340000Y-67310000D02*
X55245000Y-65405000D01*
X64135000Y-65405000D02*
X66040000Y-67310000D01*
G04 #@! TD*
M02*
